# xmcd
# 
# Track frame offsets:
#     150
#     14747
#     28324
#     45155
#     57054
#     69701
#     85338
#     101217
# 
# Disc length: 1496
# 
# Revision: 1
# Processed by: cddbd v1.5.2PL0 Copyright (c) Steve Scherf et al.
# Submitted via: BonkEnc v1.0.6
# 
DISCID=6905d608
DTITLE=Johnny Cash - Selections from "Cash Unearthed"
DYEAR=2003
DGENRE=Country
TTITLE0=Long Black Veil
TTITLE1=If I Give My Soul
TTITLE2=Pocahontas
TTITLE3=Down The Line
TTITLE4=A Singer of Songs
TTITLE5=Redemption Song (with Joe Strummer)
TTITLE6=Where We'll Never Grow Old
TTITLE7=I Am A Pilgrim
EXTD=plexi
EXTT0=
EXTT1=
EXTT2=
EXTT3=
EXTT4=
EXTT5=
EXTT6=
EXTT7=
PLAYORDER=
